<?xml version="1.0" standalone="no"?>
<!DOCTYPE svg PUBLIC "-//W3C//DTD SVG 20010904//EN"
 "http://www.w3.org/TR/2001/REC-SVG-20010904/DTD/svg10.dtd">
<svg version="1.0" xmlns="http://www.w3.org/2000/svg"
 width="860.000000pt" height="860.000000pt" viewBox="0 0 860.000000 860.000000"
 preserveAspectRatio="xMidYMid meet">

<g transform="translate(0.000000,860.000000) scale(0.100000,-0.100000)"
fill="#000000" stroke="none">
<path d="M3296 8583 c-2 -10 -7 -37 -11 -59 -6 -36 -21 -55 -128 -160 -67 -66
-142 -137 -167 -158 -44 -38 -433 -412 -718 -692 l-145 -141 117 -819 c64
-450 128 -891 141 -979 13 -88 40 -268 60 -400 19 -132 49 -328 65 -435 16
-107 41 -271 55 -365 25 -176 60 -408 94 -625 11 -69 17 -128 13 -132 -4 -4
-112 -25 -240 -47 -129 -21 -236 -42 -239 -45 -9 -9 -105 -471 -338 -1626
-183 -909 -186 -930 -152 -930 16 0 407 87 427 95 28 10 62 74 390 728 177
353 325 645 329 650 6 6 791 -382 813 -402 5 -4 -8 -115 -27 -246 -19 -132
-55 -386 -80 -565 -25 -179 -66 -451 -90 -605 -66 -415 -80 -534 -67 -547 8
-8 38 -4 109 15 288 74 420 112 440 124 6 5 32 85 58 178 25 94 57 208 71 255
13 47 49 171 79 275 72 251 141 481 150 495 10 16 28 7 31 -14 5 -33 23 -339
30 -486 12 -291 33 -563 45 -571 11 -7 36 0 292 81 160 51 158 48 176 180 19
133 27 189 87 610 30 217 57 397 59 398 9 9 20 -154 45 -673 12 -250 27 -370
46 -386 21 -17 84 -6 221 39 l118 38 17 119 c42 285 75 504 84 550 4 24 27 46
112 110 58 44 143 109 189 145 45 36 104 81 130 101 27 20 95 74 153 120 58
46 120 95 138 108 48 34 297 241 300 249 1 4 -38 109 -88 232 -91 225 -300
750 -387 973 -26 65 -49 120 -53 122 -3 2 -39 8 -80 14 -41 5 -185 37 -320 71
-174 43 -278 63 -360 70 -107 9 -274 31 -710 95 -96 14 -176 27 -178 29 -2 2
13 154 32 337 20 184 40 381 46 439 15 152 78 806 90 935 19 196 8 173 128
263 59 43 152 109 207 147 55 37 107 73 115 80 13 11 130 79 260 151 69 38
421 305 548 416 19 16 38 43 43 61 5 17 9 140 9 272 0 133 4 367 10 520 5 154
14 453 20 665 5 212 13 427 16 478 l5 92 -1315 0 c-1243 0 -1315 -1 -1320 -17z
m2558 -6159 l96 -176 -27 -21 c-15 -12 -74 -59 -131 -104 -57 -46 -108 -83
-113 -83 -5 0 -7 17 -4 38 3 20 18 139 35 264 27 206 36 258 45 258 2 0 46
-79 99 -176z m-1024 -1214 c0 -5 -4 -10 -10 -10 -5 0 -10 5 -10 10 0 6 5 10
10 10 6 0 10 -4 10 -10z"/>
</g>
</svg>
